<mxfile host="app.diagrams.net" modified="2020-12-07T13:16:18.966Z" agent="5.0 (X11; Linux x86_64) AppleWebKit/537.36 (KHTML, like Gecko) Chrome/87.0.4280.66 Safari/537.36" etag="2yJTnQkrhXvInZiHIwEP" version="13.9.7" type="github">
  <diagram id="3o2nX8ZEg7qzyCOchL_K" name="Page-1">
    <mxGraphModel dx="800" dy="1080" grid="1" gridSize="10" guides="1" tooltips="1" connect="1" arrows="1" fold="1" page="1" pageScale="1" pageWidth="850" pageHeight="1100" math="0" shadow="0">
      <root>
        <mxCell id="0" />
        <mxCell id="1" parent="0" />
        <mxCell id="xPyFbr2EyeDtdTL1guE1-5" value="" style="endArrow=classic;html=1;" edge="1" parent="1">
          <mxGeometry width="50" height="50" relative="1" as="geometry">
            <mxPoint x="80" y="320" as="sourcePoint" />
            <mxPoint x="360" y="320" as="targetPoint" />
          </mxGeometry>
        </mxCell>
        <mxCell id="SJJJBfcOs4DDu29lnCjF-6" value="" style="endArrow=classic;html=1;" parent="1" edge="1">
          <mxGeometry width="50" height="50" relative="1" as="geometry">
            <mxPoint x="80" y="80" as="sourcePoint" />
            <mxPoint x="640" y="80" as="targetPoint" />
          </mxGeometry>
        </mxCell>
        <mxCell id="SJJJBfcOs4DDu29lnCjF-7" value="Time" style="text;html=1;strokeColor=none;fillColor=none;align=center;verticalAlign=middle;whiteSpace=wrap;rounded=0;" parent="1" vertex="1">
          <mxGeometry x="340" y="50" width="40" height="20" as="geometry" />
        </mxCell>
        <mxCell id="SJJJBfcOs4DDu29lnCjF-13" value="Thread" style="text;html=1;strokeColor=none;fillColor=none;align=center;verticalAlign=middle;whiteSpace=wrap;rounded=0;" parent="1" vertex="1">
          <mxGeometry x="10" y="90" width="40" height="20" as="geometry" />
        </mxCell>
        <mxCell id="SJJJBfcOs4DDu29lnCjF-14" value="0" style="text;html=1;strokeColor=none;fillColor=none;align=center;verticalAlign=middle;whiteSpace=wrap;rounded=0;" parent="1" vertex="1">
          <mxGeometry x="10" y="150" width="40" height="20" as="geometry" />
        </mxCell>
        <mxCell id="SJJJBfcOs4DDu29lnCjF-15" value="1" style="text;html=1;strokeColor=none;fillColor=none;align=center;verticalAlign=middle;whiteSpace=wrap;rounded=0;" parent="1" vertex="1">
          <mxGeometry x="10" y="230" width="40" height="20" as="geometry" />
        </mxCell>
        <mxCell id="SJJJBfcOs4DDu29lnCjF-16" value="2" style="text;html=1;strokeColor=none;fillColor=none;align=center;verticalAlign=middle;whiteSpace=wrap;rounded=0;" parent="1" vertex="1">
          <mxGeometry x="10" y="310" width="40" height="20" as="geometry" />
        </mxCell>
        <mxCell id="SJJJBfcOs4DDu29lnCjF-19" value="3" style="text;html=1;strokeColor=none;fillColor=none;align=center;verticalAlign=middle;whiteSpace=wrap;rounded=0;" parent="1" vertex="1">
          <mxGeometry x="10" y="390" width="40" height="20" as="geometry" />
        </mxCell>
        <mxCell id="Pl_yNE4WZofKvjK3Yj6M-5" value="" style="endArrow=classic;html=1;" parent="1" edge="1">
          <mxGeometry width="50" height="50" relative="1" as="geometry">
            <mxPoint x="80" y="160" as="sourcePoint" />
            <mxPoint x="520" y="160" as="targetPoint" />
          </mxGeometry>
        </mxCell>
        <mxCell id="Pl_yNE4WZofKvjK3Yj6M-6" value="" style="endArrow=classic;html=1;" parent="1" edge="1">
          <mxGeometry width="50" height="50" relative="1" as="geometry">
            <mxPoint x="80" y="240" as="sourcePoint" />
            <mxPoint x="160" y="240" as="targetPoint" />
          </mxGeometry>
        </mxCell>
        <mxCell id="Pl_yNE4WZofKvjK3Yj6M-7" value="" style="endArrow=classic;html=1;fillColor=#0050ef;strokeColor=#001DBC;strokeWidth=2;" parent="1" edge="1">
          <mxGeometry width="50" height="50" relative="1" as="geometry">
            <mxPoint x="160" y="240" as="sourcePoint" />
            <mxPoint x="200" y="240" as="targetPoint" />
          </mxGeometry>
        </mxCell>
        <mxCell id="Pl_yNE4WZofKvjK3Yj6M-8" value="" style="endArrow=classic;html=1;" parent="1" edge="1">
          <mxGeometry width="50" height="50" relative="1" as="geometry">
            <mxPoint x="200" y="240" as="sourcePoint" />
            <mxPoint x="640" y="240" as="targetPoint" />
          </mxGeometry>
        </mxCell>
        <mxCell id="Pl_yNE4WZofKvjK3Yj6M-9" value="" style="endArrow=classic;html=1;fillColor=#0050ef;strokeColor=#001DBC;strokeWidth=2;" parent="1" edge="1">
          <mxGeometry width="50" height="50" relative="1" as="geometry">
            <mxPoint x="520" y="160" as="sourcePoint" />
            <mxPoint x="560" y="160" as="targetPoint" />
          </mxGeometry>
        </mxCell>
        <mxCell id="Pl_yNE4WZofKvjK3Yj6M-10" value="" style="endArrow=classic;html=1;" parent="1" edge="1">
          <mxGeometry width="50" height="50" relative="1" as="geometry">
            <mxPoint x="560" y="160" as="sourcePoint" />
            <mxPoint x="640" y="160" as="targetPoint" />
          </mxGeometry>
        </mxCell>
        <mxCell id="Pl_yNE4WZofKvjK3Yj6M-12" value="" style="endArrow=classic;html=1;fillColor=#e51400;strokeColor=#B20000;strokeWidth=2;" parent="1" edge="1">
          <mxGeometry width="50" height="50" relative="1" as="geometry">
            <mxPoint x="360" y="320" as="sourcePoint" />
            <mxPoint x="400" y="320" as="targetPoint" />
          </mxGeometry>
        </mxCell>
        <mxCell id="Pl_yNE4WZofKvjK3Yj6M-13" value="" style="endArrow=classic;html=1;" parent="1" edge="1">
          <mxGeometry width="50" height="50" relative="1" as="geometry">
            <mxPoint x="400" y="320" as="sourcePoint" />
            <mxPoint x="640" y="320" as="targetPoint" />
          </mxGeometry>
        </mxCell>
        <mxCell id="Pl_yNE4WZofKvjK3Yj6M-14" value="" style="endArrow=classic;html=1;" parent="1" edge="1">
          <mxGeometry width="50" height="50" relative="1" as="geometry">
            <mxPoint x="80" y="400" as="sourcePoint" />
            <mxPoint x="240" y="400" as="targetPoint" />
          </mxGeometry>
        </mxCell>
        <mxCell id="Pl_yNE4WZofKvjK3Yj6M-15" value="" style="endArrow=classic;html=1;fillColor=#0050ef;strokeColor=#001DBC;strokeWidth=2;" parent="1" edge="1">
          <mxGeometry width="50" height="50" relative="1" as="geometry">
            <mxPoint x="240" y="400" as="sourcePoint" />
            <mxPoint x="320" y="400" as="targetPoint" />
          </mxGeometry>
        </mxCell>
        <mxCell id="Pl_yNE4WZofKvjK3Yj6M-16" value="" style="endArrow=classic;html=1;" parent="1" edge="1">
          <mxGeometry width="50" height="50" relative="1" as="geometry">
            <mxPoint x="320" y="400" as="sourcePoint" />
            <mxPoint x="640" y="400" as="targetPoint" />
          </mxGeometry>
        </mxCell>
        <mxCell id="Pl_yNE4WZofKvjK3Yj6M-19" value="MPI_Send" style="text;html=1;strokeColor=none;fillColor=none;align=center;verticalAlign=middle;whiteSpace=wrap;rounded=0;fontColor=#CC0000;" parent="1" vertex="1">
          <mxGeometry x="360" y="290" width="40" height="20" as="geometry" />
        </mxCell>
        <mxCell id="Pl_yNE4WZofKvjK3Yj6M-20" value="MPI_Recv" style="text;html=1;strokeColor=none;fillColor=none;align=center;verticalAlign=middle;whiteSpace=wrap;rounded=0;fontColor=#0000CC;" parent="1" vertex="1">
          <mxGeometry x="250" y="370" width="40" height="20" as="geometry" />
        </mxCell>
        <mxCell id="Pl_yNE4WZofKvjK3Yj6M-21" value="MPI_Recv" style="text;html=1;strokeColor=none;fillColor=none;align=center;verticalAlign=middle;whiteSpace=wrap;rounded=0;fontColor=#0000CC;" parent="1" vertex="1">
          <mxGeometry x="160" y="210" width="40" height="20" as="geometry" />
        </mxCell>
        <mxCell id="Pl_yNE4WZofKvjK3Yj6M-22" value="MPI_Recv" style="text;html=1;strokeColor=none;fillColor=none;align=center;verticalAlign=middle;whiteSpace=wrap;rounded=0;fontColor=#0000CC;" parent="1" vertex="1">
          <mxGeometry x="520" y="130" width="40" height="20" as="geometry" />
        </mxCell>
        <mxCell id="Pl_yNE4WZofKvjK3Yj6M-23" value="compute" style="text;html=1;strokeColor=none;fillColor=none;align=center;verticalAlign=middle;whiteSpace=wrap;rounded=0;" parent="1" vertex="1">
          <mxGeometry x="120" y="370" width="40" height="20" as="geometry" />
        </mxCell>
        <mxCell id="Pl_yNE4WZofKvjK3Yj6M-24" value="compute" style="text;html=1;strokeColor=none;fillColor=none;align=center;verticalAlign=middle;whiteSpace=wrap;rounded=0;" parent="1" vertex="1">
          <mxGeometry x="460" y="370" width="40" height="20" as="geometry" />
        </mxCell>
        <mxCell id="Pl_yNE4WZofKvjK3Yj6M-25" value="compute" style="text;html=1;strokeColor=none;fillColor=none;align=center;verticalAlign=middle;whiteSpace=wrap;rounded=0;" parent="1" vertex="1">
          <mxGeometry x="510" y="290" width="40" height="20" as="geometry" />
        </mxCell>
        <mxCell id="Pl_yNE4WZofKvjK3Yj6M-26" value="compute" style="text;html=1;strokeColor=none;fillColor=none;align=center;verticalAlign=middle;whiteSpace=wrap;rounded=0;" parent="1" vertex="1">
          <mxGeometry x="150" y="290" width="40" height="20" as="geometry" />
        </mxCell>
        <mxCell id="Pl_yNE4WZofKvjK3Yj6M-27" value="compute" style="text;html=1;strokeColor=none;fillColor=none;align=center;verticalAlign=middle;whiteSpace=wrap;rounded=0;" parent="1" vertex="1">
          <mxGeometry x="90" y="210" width="40" height="20" as="geometry" />
        </mxCell>
        <mxCell id="Pl_yNE4WZofKvjK3Yj6M-28" value="compute" style="text;html=1;strokeColor=none;fillColor=none;align=center;verticalAlign=middle;whiteSpace=wrap;rounded=0;" parent="1" vertex="1">
          <mxGeometry x="385" y="210" width="40" height="20" as="geometry" />
        </mxCell>
        <mxCell id="Pl_yNE4WZofKvjK3Yj6M-29" value="compute" style="text;html=1;strokeColor=none;fillColor=none;align=center;verticalAlign=middle;whiteSpace=wrap;rounded=0;" parent="1" vertex="1">
          <mxGeometry x="260" y="130" width="40" height="20" as="geometry" />
        </mxCell>
        <mxCell id="Pl_yNE4WZofKvjK3Yj6M-30" value="compute" style="text;html=1;strokeColor=none;fillColor=none;align=center;verticalAlign=middle;whiteSpace=wrap;rounded=0;" parent="1" vertex="1">
          <mxGeometry x="580" y="130" width="40" height="20" as="geometry" />
        </mxCell>
        <mxCell id="xPyFbr2EyeDtdTL1guE1-4" value="" style="endArrow=oval;html=1;fontColor=#FFB570;fillColor=#ffe6cc;strokeColor=#d79b00;startArrow=oval;startFill=1;endFill=1;" edge="1" parent="1">
          <mxGeometry width="50" height="50" relative="1" as="geometry">
            <mxPoint x="210" y="400" as="sourcePoint" />
            <mxPoint x="210" y="240" as="targetPoint" />
          </mxGeometry>
        </mxCell>
        <mxCell id="xPyFbr2EyeDtdTL1guE1-3" value="SYNCHRONIZATION" style="text;html=1;strokeColor=none;fillColor=none;align=center;verticalAlign=middle;whiteSpace=wrap;rounded=0;fontStyle=1;fontColor=#FFB570;direction=west;rotation=90;" vertex="1" parent="1">
          <mxGeometry x="200" y="310" width="40" height="20" as="geometry" />
        </mxCell>
        <mxCell id="xPyFbr2EyeDtdTL1guE1-6" value="" style="endArrow=oval;html=1;fontColor=#FFB570;fillColor=#ffe6cc;strokeColor=#d79b00;startArrow=oval;startFill=1;endFill=1;" edge="1" parent="1">
          <mxGeometry width="50" height="50" relative="1" as="geometry">
            <mxPoint x="330" y="400" as="sourcePoint" />
            <mxPoint x="330" y="320" as="targetPoint" />
          </mxGeometry>
        </mxCell>
        <mxCell id="xPyFbr2EyeDtdTL1guE1-7" value="SYNCHRONIZATION" style="text;html=1;strokeColor=none;fillColor=none;align=center;verticalAlign=middle;whiteSpace=wrap;rounded=0;fontStyle=1;fontColor=#FFB570;direction=west;rotation=90;" vertex="1" parent="1">
          <mxGeometry x="320" y="350" width="40" height="20" as="geometry" />
        </mxCell>
        <mxCell id="xPyFbr2EyeDtdTL1guE1-8" value="" style="endArrow=oval;html=1;fontColor=#FFB570;fillColor=#ffe6cc;strokeColor=#d79b00;startArrow=oval;startFill=1;endFill=1;" edge="1" parent="1">
          <mxGeometry width="50" height="50" relative="1" as="geometry">
            <mxPoint x="450" y="320" as="sourcePoint" />
            <mxPoint x="450" y="160" as="targetPoint" />
          </mxGeometry>
        </mxCell>
        <mxCell id="xPyFbr2EyeDtdTL1guE1-10" value="SYNCHRONIZATION" style="text;html=1;strokeColor=none;fillColor=none;align=center;verticalAlign=middle;whiteSpace=wrap;rounded=0;fontStyle=1;fontColor=#FFB570;direction=west;rotation=90;" vertex="1" parent="1">
          <mxGeometry x="440" y="230" width="40" height="20" as="geometry" />
        </mxCell>
      </root>
    </mxGraphModel>
  </diagram>
</mxfile>
